<svg width="2056" height="2056" viewBox="0 0 2056 2056" fill="none" xmlns="http://www.w3.org/2000/svg">
<rect width="2056" height="2056" fill="#F9D799"/>
<path d="M1748.53 2052.41C1715.71 1907.1 1561.68 1851.89 1488.76 1842.45H1008.3C1074.71 1872.92 1070.15 1995.12 1057.13 2052.41H1748.53Z" fill="#2A80A7"/>
<path d="M307.137 2052.41C339.949 1907.1 493.983 1851.89 566.899 1842.45H826.661C760.256 1872.92 764.813 1995.12 777.834 2052.41H307.137Z" fill="#36A9E1"/>
<path d="M1031.98 313.635C302.811 313.635 424.339 1483.34 545.866 1726.4C622.733 1880.11 1441.22 1880.11 1518.09 1726.4C1639.62 1483.34 1761.14 313.635 1031.98 313.635Z" fill="#1D71B8"/>
<path d="M1031.67 314.327C734.907 314.327 986.402 1012.42 895.256 1437.77C785.544 1949.96 473.488 1582.93 545.56 1727.09C622.427 1880.82 1440.92 1880.82 1517.78 1727.09C1639.31 1484.03 1760.84 314.327 1031.67 314.327Z" fill="#1B5B93"/>
<path d="M371.98 1099.3C364.948 996.174 454.335 964.534 499.908 961.604C557.199 1041.36 612.259 1215.39 533.112 1226.25C483.308 1233.08 380.768 1228.2 371.98 1099.3Z" fill="#D88F36"/>
<path d="M1689.35 1101.25C1696.38 998.127 1607 966.487 1561.42 963.557C1504.13 1043.31 1449.07 1217.34 1528.22 1228.2C1578.02 1235.04 1680.56 1230.16 1689.35 1101.25Z" fill="#D88F36"/>
<path d="M422.764 1097.34C421.201 1055.16 472.242 1038.1 497.958 1034.85L542.879 1097.34C538.647 1116.22 523.738 1154.96 497.958 1158.87C476.475 1158.87 424.717 1150.08 422.764 1097.34Z" fill="#DE5222"/>
<path d="M1638.57 1099.3C1640.13 1057.11 1589.09 1040.05 1563.38 1036.8L1518.46 1099.3C1522.69 1118.18 1537.6 1156.91 1563.38 1160.82C1584.86 1160.82 1636.62 1152.03 1638.57 1099.3Z" fill="#DE5222"/>
<path d="M873.535 1847.34V1641.28C971.19 1685.81 1120.6 1659.84 1183.1 1641.28V1847.34C1162.59 1868.17 1102.05 1909.64 1023.92 1908.86C945.8 1908.08 891.113 1867.52 873.535 1847.34Z" fill="#D88F36"/>
<path d="M824.785 1842.45C758.38 1872.92 762.937 1995.12 775.958 2052.41H1276.93C1300.37 1906.32 1255.44 1851.57 1230.05 1842.45H1183.1C1171.71 1864.26 1122.56 1900.07 1028.81 1900.07C935.058 1900.07 886.308 1864.26 873.613 1842.45H824.785Z" fill="#DADADA"/>
<path d="M873.535 1694.86V1606.13C971.498 1625.3 1121.38 1614.12 1184.08 1606.13V1694.86C1163.51 1703.83 1102.77 1721.69 1024.4 1721.36C946.028 1721.02 891.169 1703.55 873.535 1694.86Z" fill="#DE5222"/>
<path d="M1024.9 1678.39C598.147 1678.39 464.361 1192.07 501.522 990.901C461.484 302.433 1155.98 245.595 1408.69 611.022C1761.22 1120.78 1467.29 1678.39 1024.9 1678.39Z" fill="#D88F36"/>
<circle cx="1250.48" cy="1031.92" r="164.06" fill="#F1F0EE"/>
<circle cx="1220.21" cy="1032.89" r="94.7254" fill="black"/>
<circle cx="1274.9" cy="982.112" r="26.3669" fill="#F1F0EE"/>
<circle cx="164.06" cy="164.06" r="164.06" transform="matrix(-1 0 0 1 975.098 867.855)" fill="#F1F0EE"/>
<circle cx="94.7254" cy="94.7254" r="94.7254" transform="matrix(-1 0 0 1 926.27 934.26)" fill="black"/>
<circle cx="26.3669" cy="26.3669" r="26.3669" transform="matrix(-1 0 0 1 910.646 953.792)" fill="#F1F0EE"/>
<path d="M901.855 1374.69C981.933 1432.44 1086.42 1436.69 1161.62 1374.69" stroke="#D87344" stroke-width="23.4372" stroke-linecap="round"/>
<path d="M942 930.991C836.108 912.622 776.171 916.058 668 954.491C679.667 923.324 711.8 869.39 797 860.99C882.2 852.59 925.667 899.491 942 930.991Z" fill="#DE5222"/>
<path d="M1119 934.991C1226.82 922.312 1287.4 924.515 1396 952.963C1389.5 934.991 1341 872.632 1263.5 864.99C1178.3 856.59 1135.33 903.491 1119 934.991Z" fill="#DE5222"/>
<path d="M1027.83 1195.98C1042.48 1195.98 1081.51 1251.33 1061.03 1286.8C1040.56 1322.26 1016.08 1322.26 995.603 1286.8C975.126 1251.33 1013.19 1195.98 1027.83 1195.98Z" fill="#DE5222"/>
<path d="M1153.5 337.266C1153.5 237.68 469.91 146.535 469.91 914.523C469.91 944.905 423.409 1005.67 545.865 1005.67C667.393 1005.67 1153.5 899.332 1153.5 337.266Z" fill="#1D71B8"/>
<path d="M1138.31 328.826C1138.31 875.701 1396.56 997.229 1518.09 997.229C1639.61 997.229 1594.04 951.656 1594.04 906.083C1594.04 283.253 1138.31 268.062 1138.31 328.826Z" fill="#1D71B8"/>
<path d="M1275.03 318.699C1198.7 295.474 1578.85 526.309 1502.89 860.51C1470.96 1001.04 1233.9 836.576 1335.79 923.08C1401.86 979.185 1470.82 997.988 1518.63 997.988C1640.15 997.988 1594.58 952.416 1594.58 906.843C1594.58 509.734 1409.32 359.63 1275.03 318.75" fill="#1B5B93"/>
</svg>
