<svg width="2056" height="2056" viewBox="0 0 2056 2056" fill="none" xmlns="http://www.w3.org/2000/svg">
<rect width="2056" height="2056" fill="#F9D799"/>
<path d="M1748.53 2052.41C1715.71 1907.1 1561.68 1851.89 1488.76 1842.45H1008.3C1074.71 1872.92 1070.15 1995.12 1057.13 2052.41H1748.53Z" fill="#95C238"/>
<path d="M307.137 2052.41C339.949 1907.1 493.983 1851.89 566.899 1842.45H826.661C760.256 1872.92 764.813 1995.12 777.834 2052.41H307.137Z" fill="#95C238"/>
<path d="M371.98 1099.3C364.948 996.174 454.335 964.534 499.908 961.604C557.199 1041.36 612.259 1215.39 533.112 1226.25C483.308 1233.08 380.768 1228.2 371.98 1099.3Z" fill="#D88F36"/>
<path d="M1689.35 1101.25C1696.38 998.127 1607 966.487 1561.42 963.557C1504.13 1043.31 1449.07 1217.34 1528.22 1228.2C1578.02 1235.04 1680.56 1230.16 1689.35 1101.25Z" fill="#D88F36"/>
<path d="M422.764 1097.34C421.201 1055.16 472.242 1038.1 497.958 1034.85L542.879 1097.34C538.647 1116.22 523.738 1154.96 497.958 1158.87C476.475 1158.87 424.717 1150.08 422.764 1097.34Z" fill="#DE5222"/>
<path d="M1638.57 1099.3C1640.13 1057.11 1589.09 1040.05 1563.38 1036.8L1518.46 1099.3C1522.69 1118.18 1537.6 1156.91 1563.38 1160.82C1584.86 1160.82 1636.62 1152.03 1638.57 1099.3Z" fill="#DE5222"/>
<path d="M873.535 1847.33V1641.28C971.19 1685.81 1120.6 1659.84 1183.1 1641.28V1847.33C1162.59 1868.17 1102.05 1909.64 1023.92 1908.86C945.8 1908.08 891.113 1867.52 873.535 1847.33Z" fill="#D88F36"/>
<path d="M824.785 1842.45C758.38 1872.92 762.937 1995.12 775.958 2052.41H1276.93C1300.37 1906.32 1255.44 1851.57 1230.05 1842.45H1183.1C1171.71 1864.26 1122.56 1900.07 1028.81 1900.07C935.058 1900.07 886.308 1864.26 873.613 1842.45H824.785Z" fill="#DADADA"/>
<path d="M873.535 1694.86V1606.13C971.498 1625.3 1121.38 1614.12 1184.08 1606.13V1694.86C1163.51 1703.83 1102.77 1721.69 1024.4 1721.36C946.028 1721.02 891.169 1703.55 873.535 1694.86Z" fill="#DE5222"/>
<path d="M1024.9 1678.39C598.147 1678.39 464.361 1192.07 501.522 990.901C461.484 302.433 1155.98 245.595 1408.69 611.022C1761.22 1120.78 1467.29 1678.39 1024.9 1678.39Z" fill="#D88F36"/>
<circle cx="1250.48" cy="1031.92" r="164.06" fill="#F1F0EE"/>
<circle cx="1220.21" cy="1032.89" r="94.7254" fill="black"/>
<circle cx="1274.9" cy="982.112" r="26.3669" fill="#F1F0EE"/>
<circle cx="164.06" cy="164.06" r="164.06" transform="matrix(-1 0 0 1 975.098 867.855)" fill="#F1F0EE"/>
<circle cx="94.7254" cy="94.7254" r="94.7254" transform="matrix(-1 0 0 1 926.27 934.26)" fill="black"/>
<circle cx="26.3669" cy="26.3669" r="26.3669" transform="matrix(-1 0 0 1 910.646 953.792)" fill="#F1F0EE"/>
<path d="M901.855 1374.68C981.933 1432.44 1086.42 1436.68 1161.62 1374.68" stroke="#D87344" stroke-width="23.4372" stroke-linecap="round"/>
<path d="M1027.83 1195.98C1042.48 1195.98 1081.51 1251.33 1061.03 1286.8C1040.56 1322.26 1016.08 1322.26 995.603 1286.8C975.126 1251.33 1013.19 1195.98 1027.83 1195.98Z" fill="#DE5222"/>
<path d="M1306.56 359.036C1004.43 157.532 790.432 383.782 726.799 367.874C567.717 256.517 440.451 415.599 504.084 526.956C408.635 479.231 217.737 749.671 424.543 797.395C313.186 956.477 519.992 1067.83 544.739 1028.95C576.307 979.332 574.787 788.558 670.237 677.2C762.84 569.166 861.135 645.384 1290.66 661.292C1376.26 664.456 1543.5 872.942 1543.5 1017C1543.5 1072.54 1656.37 700.868 1431.11 454.485C1402.01 422.669 1370.2 422.669 1370.2 422.669C1370.2 422.669 1354.29 390.852 1306.56 359.036Z" fill="#93C353"/>
<path d="M1306.57 359.035C1083.85 231.77 1704.27 693.107 1115.67 613.566C480.169 527.68 574.788 788.557 670.237 677.199C762.84 569.165 861.135 645.383 1290.66 661.291C1376.26 664.455 1543 883.942 1543 1028C1543 1083.54 1655.56 700.867 1430.3 454.484C1401.2 422.668 1370.2 422.668 1370.2 422.668C1370.2 422.668 1356.36 387.493 1306.57 359.035Z" fill="#428031"/>
<path d="M940.5 932C834.608 913.631 774.671 917.067 666.5 955.5C678.167 924.333 710.3 870.4 795.5 862C880.7 853.6 924.167 900.5 940.5 932Z" fill="#DE5222"/>
<path d="M1117.5 936C1225.32 923.321 1285.9 925.524 1394.5 953.973C1388 936 1339.5 873.641 1262 866C1176.8 857.599 1133.83 904.5 1117.5 936Z" fill="#DE5222"/>
</svg>
