<svg width="2056" height="2056" viewBox="0 0 2056 2056" fill="none" xmlns="http://www.w3.org/2000/svg">
<rect width="2056" height="2056" fill="#F9D799"/>
<path d="M1748.53 2052.41C1715.71 1907.1 1561.68 1851.89 1488.76 1842.45H1008.3C1074.71 1872.92 1070.15 1995.12 1057.13 2052.41H1748.53Z" fill="#931639"/>
<path d="M307.137 2052.41C339.949 1907.1 493.983 1851.89 566.899 1842.45H826.661C760.256 1872.92 764.813 1995.12 777.834 2052.41H307.137Z" fill="#DC5A7D"/>
<path d="M371.98 1099.3C364.948 996.174 454.335 964.533 499.908 961.604C557.199 1041.36 612.259 1215.39 533.112 1226.25C483.308 1233.08 380.768 1228.2 371.98 1099.3Z" fill="#D88F36"/>
<path d="M1689.35 1101.25C1696.38 998.127 1607 966.487 1561.42 963.557C1504.13 1043.31 1449.07 1217.34 1528.22 1228.2C1578.02 1235.04 1680.56 1230.16 1689.35 1101.25Z" fill="#D88F36"/>
<path d="M422.764 1097.34C421.201 1055.16 472.242 1038.1 497.958 1034.85L542.879 1097.34C538.647 1116.22 523.738 1154.96 497.958 1158.87C476.475 1158.87 424.717 1150.08 422.764 1097.34Z" fill="#DE5222"/>
<path d="M1638.57 1099.3C1640.13 1057.11 1589.09 1040.05 1563.38 1036.8L1518.46 1099.3C1522.69 1118.18 1537.6 1156.91 1563.38 1160.82C1584.86 1160.82 1636.62 1152.03 1638.57 1099.3Z" fill="#DE5222"/>
<path d="M873.535 1847.33V1641.28C971.19 1685.81 1120.6 1659.84 1183.1 1641.28V1847.33C1162.59 1868.17 1102.05 1909.64 1023.92 1908.86C945.8 1908.08 891.113 1867.52 873.535 1847.33Z" fill="#D88F36"/>
<path d="M824.785 1842.45C758.38 1872.92 762.937 1995.12 775.958 2052.41H1276.93C1300.37 1906.32 1255.44 1851.57 1230.05 1842.45H1183.1C1171.71 1864.26 1122.56 1900.07 1028.81 1900.07C935.058 1900.07 886.308 1864.26 873.613 1842.45H824.785Z" fill="#DADADA"/>
<path d="M873.535 1694.86V1606.13C971.498 1625.3 1121.38 1614.12 1184.08 1606.13V1694.86C1163.51 1703.83 1102.77 1721.69 1024.4 1721.36C946.028 1721.02 891.169 1703.55 873.535 1694.86Z" fill="#DE5222"/>
<path d="M1024.9 1678.39C598.147 1678.39 464.361 1192.07 501.522 990.901C461.484 302.433 1155.98 245.595 1408.69 611.022C1761.22 1120.78 1467.29 1678.39 1024.9 1678.39Z" fill="#D88F36"/>
<circle cx="1250.48" cy="1031.92" r="164.06" fill="#F1F0EE"/>
<circle cx="1220.21" cy="1032.89" r="94.7254" fill="black"/>
<circle cx="1274.9" cy="982.112" r="26.3669" fill="#F1F0EE"/>
<circle cx="164.06" cy="164.06" r="164.06" transform="matrix(-1 0 0 1 975.098 867.855)" fill="#F1F0EE"/>
<circle cx="94.7254" cy="94.7254" r="94.7254" transform="matrix(-1 0 0 1 926.27 934.26)" fill="black"/>
<circle cx="26.3669" cy="26.3669" r="26.3669" transform="matrix(-1 0 0 1 910.646 953.792)" fill="#F1F0EE"/>
<path d="M901.855 1374.68C981.933 1432.44 1086.42 1436.68 1161.62 1374.68" stroke="#D87344" stroke-width="23.4372" stroke-linecap="round"/>
<path d="M1027.83 1195.98C1042.48 1195.98 1081.51 1251.33 1061.03 1286.8C1040.56 1322.26 1016.08 1322.26 995.603 1286.8C975.126 1251.33 1013.19 1195.98 1027.83 1195.98Z" fill="#DE5222"/>
<path d="M942 932.991C836.108 914.622 776.171 918.058 668 956.491C679.667 925.324 711.8 871.39 797 862.99C882.2 854.59 925.667 901.491 942 932.991Z" fill="#DE5222"/>
<path d="M1119 936.991C1226.82 924.312 1287.4 926.515 1396 954.963C1389.5 936.991 1341 874.632 1263.5 866.99C1178.3 858.59 1135.33 905.491 1119 936.991Z" fill="#DE5222"/>
<path d="M1305.3 356.926C985.61 143.712 446.833 542.086 379.502 525.253C327.863 512.348 430.786 592.584 430 592.584C428.916 592.584 355.88 568.083 379.502 609.416C446.833 727.245 499.201 1200.43 499.201 1065.77C499.201 1003.54 530.996 811.408 631.993 693.58C729.978 579.267 833.985 659.914 1288.47 676.747C1379.05 680.095 1540.96 911.469 1540.96 1063.9C1540.96 1122.66 1675.43 718.623 1437.08 457.922C1406.3 424.257 1372.63 424.257 1372.63 424.257C1372.63 424.257 1355.8 390.591 1305.3 356.926Z" fill="#E94C27"/>
<path d="M1305.3 356.926C1069.64 222.265 1726.12 710.413 1103.31 626.249C430.88 535.371 530.997 811.409 631.993 693.58C729.978 579.267 833.985 659.915 1288.47 676.747C1379.05 680.095 1540.96 911.47 1540.96 1063.9C1540.96 1122.66 1674.57 718.623 1436.22 457.922C1405.44 424.257 1372.63 424.257 1372.63 424.257C1372.63 424.257 1357.99 387.038 1305.3 356.926Z" fill="#992E36"/>
</svg>
