<svg width="2056" height="2056" viewBox="0 0 2056 2056" fill="none" xmlns="http://www.w3.org/2000/svg">
<rect width="2056" height="2056" fill="#F9D799"/>
<path d="M1748.53 2052.41C1715.71 1907.1 1561.68 1851.89 1488.76 1842.45H1008.3C1074.71 1872.92 1070.15 1995.12 1057.13 2052.41H1748.53Z" fill="#3693BF"/>
<path d="M307.137 2052.41C339.949 1907.1 493.983 1851.89 566.899 1842.45H826.661C760.256 1872.92 764.813 1995.12 777.834 2052.41H307.137Z" fill="#3693BF"/>
<path d="M371.98 1099.3C364.948 996.174 454.335 964.534 499.908 961.604C557.199 1041.36 612.259 1215.39 533.112 1226.25C483.308 1233.08 380.768 1228.2 371.98 1099.3Z" fill="#D88F36"/>
<path d="M1689.35 1101.25C1696.38 998.127 1607 966.487 1561.42 963.557C1504.13 1043.31 1449.07 1217.34 1528.22 1228.2C1578.02 1235.04 1680.56 1230.16 1689.35 1101.25Z" fill="#D88F36"/>
<path d="M422.764 1097.34C421.201 1055.16 472.242 1038.1 497.958 1034.85L542.879 1097.34C538.647 1116.22 523.738 1154.96 497.958 1158.87C476.475 1158.87 424.717 1150.08 422.764 1097.34Z" fill="#DE5222"/>
<path d="M1638.57 1099.3C1640.13 1057.11 1589.09 1040.05 1563.38 1036.8L1518.46 1099.3C1522.69 1118.18 1537.6 1156.91 1563.38 1160.82C1584.86 1160.82 1636.62 1152.03 1638.57 1099.3Z" fill="#DE5222"/>
<path d="M873.535 1847.33V1641.28C971.19 1685.81 1120.6 1659.84 1183.1 1641.28V1847.33C1162.59 1868.17 1102.05 1909.64 1023.92 1908.86C945.8 1908.08 891.113 1867.52 873.535 1847.33Z" fill="#D88F36"/>
<path d="M824.785 1842.45C758.38 1872.92 762.937 1995.12 775.958 2052.41H1276.93C1300.37 1906.32 1255.44 1851.57 1230.05 1842.45H1183.1C1171.71 1864.26 1122.56 1900.07 1028.81 1900.07C935.058 1900.07 886.308 1864.26 873.613 1842.45H824.785Z" fill="#DADADA"/>
<path d="M873.535 1694.86V1606.13C971.498 1625.3 1121.38 1614.12 1184.08 1606.13V1694.86C1163.51 1703.83 1102.77 1721.69 1024.4 1721.36C946.028 1721.02 891.169 1703.55 873.535 1694.86Z" fill="#DE5222"/>
<path d="M1024.9 1678.39C598.147 1678.39 464.361 1192.07 501.522 990.901C461.484 302.433 1155.98 245.595 1408.69 611.022C1761.22 1120.78 1467.29 1678.39 1024.9 1678.39Z" fill="#D88F36"/>
<circle cx="1250.48" cy="1031.92" r="164.06" fill="#F1F0EE"/>
<circle cx="1220.21" cy="1032.89" r="94.7254" fill="black"/>
<circle cx="1274.9" cy="982.111" r="26.3669" fill="#F1F0EE"/>
<path d="M1120.34 932.978C1228.38 922.343 1288.9 925.693 1396.95 956.192C1390.79 938.1 1343.48 874.833 1266.14 865.726C1181.11 855.714 1137.27 901.793 1120.34 932.978Z" fill="#DE5222"/>
<circle cx="164.06" cy="164.06" r="164.06" transform="matrix(-1 0 0 1 975.096 867.855)" fill="#F1F0EE"/>
<circle cx="94.7254" cy="94.7254" r="94.7254" transform="matrix(-1 0 0 1 926.27 934.26)" fill="black"/>
<circle cx="26.3669" cy="26.3669" r="26.3669" transform="matrix(-1 0 0 1 910.645 953.792)" fill="#F1F0EE"/>
<path d="M942 932.991C836.108 914.622 776.171 918.058 668 956.491C679.667 925.324 711.8 871.39 797 862.99C882.2 854.59 925.667 901.491 942 932.991Z" fill="#DE5222"/>
<path d="M1534.66 515.32C1402.55 308.842 1230.63 324.893 1166.51 355.166C1159.02 372.093 1133.52 443.023 1144.04 589.538C1156.73 766.294 1463.37 1016.29 1564.94 994.807C1663.76 973.903 1682.12 745.786 1534.66 515.32Z" fill="#1D71B8"/>
<path d="M1534.6 515.41C1483.51 435.55 1426.46 389 1372 363.64C1285.64 323.47 1696 589 1552 877C1489.13 1002.74 1185.1 715.58 1236.15 778C1338.29 902.86 1497.15 1009.22 1564.88 994.89C1663.7 974 1682.06 745.87 1534.6 515.41Z" fill="#1C5C95"/>
<path d="M1145.99 587.585C1197.18 427.63 1178.54 373.395 1168.45 354.189C1114.74 277.042 887.207 232.12 675.296 369.814C463.384 507.508 413.579 749.692 413.58 854.183C413.581 951.838 432.351 1003.67 494.634 993.83C762.501 951.5 1091.31 758.481 1145.99 587.585Z" fill="#1D71B8"/>
<path d="M901.855 1374.68C981.933 1432.44 1086.42 1436.68 1161.62 1374.68" stroke="#D87344" stroke-width="23.4372" stroke-linecap="round"/>
<path d="M1027.83 1195.98C1042.48 1195.98 1081.51 1251.33 1061.03 1286.8C1040.56 1322.26 1016.08 1322.26 995.603 1286.8C975.126 1251.33 1013.19 1195.98 1027.83 1195.98Z" fill="#DE5222"/>
</svg>
