<svg width="2056" height="2056" viewBox="0 0 2056 2056" fill="none" xmlns="http://www.w3.org/2000/svg">
<rect width="2056" height="2056" fill="#F9D799"/>
<path d="M1748.53 2052.41C1715.71 1907.1 1561.68 1851.89 1488.76 1842.45H1008.3C1074.71 1872.92 1070.15 1995.12 1057.13 2052.41H1748.53Z" fill="#F08223"/>
<path d="M307.137 2052.41C339.949 1907.1 493.983 1851.89 566.899 1842.45H826.661C760.256 1872.92 764.813 1995.12 777.834 2052.41H307.137Z" fill="#F08223"/>
<path d="M1182.06 242C430.578 242 1119.44 1306.6 1244.68 1557.09C1401.24 1823.24 1322.02 1840.76 1401.24 1682.34C1526.49 1431.84 1933.54 242 1182.06 242Z" fill="#FECC33"/>
<path d="M1369.93 1604.06C1340.5 1676.6 1115.47 1299.27 1240.72 1549.77C1259.6 1581.88 1275.42 1610.41 1288.17 1635.37C1380.85 1817.59 1331.66 1821.64 1401.24 1682.34C1513.98 1456.84 1851.12 468.036 1369.93 273.312C1316.58 251.724 1808.29 523.805 1369.93 1604.06Z" fill="#F9B233"/>
<path d="M371.98 1099.3C364.948 996.174 454.335 964.533 499.908 961.604C557.199 1041.36 612.259 1215.39 533.112 1226.25C483.308 1233.08 380.768 1228.2 371.98 1099.3Z" fill="#D88F36"/>
<path d="M1689.35 1101.25C1696.38 998.127 1607 966.487 1561.42 963.557C1504.13 1043.31 1449.07 1217.34 1528.22 1228.2C1578.02 1235.04 1680.56 1230.16 1689.35 1101.25Z" fill="#D88F36"/>
<path d="M422.764 1097.34C421.201 1055.16 472.242 1038.1 497.958 1034.85L542.879 1097.34C538.647 1116.22 523.738 1154.96 497.958 1158.87C476.475 1158.87 424.717 1150.08 422.764 1097.34Z" fill="#DE5222"/>
<path d="M1638.57 1099.3C1640.13 1057.11 1589.09 1040.05 1563.38 1036.8L1518.46 1099.3C1522.69 1118.18 1537.6 1156.91 1563.38 1160.82C1584.86 1160.82 1636.62 1152.03 1638.57 1099.3Z" fill="#DE5222"/>
<path d="M873.535 1847.34V1641.28C971.19 1685.81 1120.6 1659.84 1183.1 1641.28V1847.34C1162.59 1868.17 1102.05 1909.64 1023.92 1908.86C945.8 1908.08 891.113 1867.52 873.535 1847.34Z" fill="#D88F36"/>
<path d="M824.785 1842.45C758.38 1872.92 762.937 1995.12 775.958 2052.41H1276.93C1300.37 1906.32 1255.44 1851.57 1230.05 1842.45H1183.1C1171.71 1864.26 1122.56 1900.07 1028.81 1900.07C935.058 1900.07 886.308 1864.26 873.613 1842.45H824.785Z" fill="#DADADA"/>
<path d="M873.535 1694.86V1606.13C971.498 1625.3 1121.38 1614.12 1184.08 1606.13V1694.86C1163.51 1703.83 1102.77 1721.69 1024.4 1721.36C946.028 1721.02 891.169 1703.55 873.535 1694.86Z" fill="#DE5222"/>
<path d="M1024.9 1678.39C598.147 1678.39 464.361 1192.07 501.522 990.901C461.484 302.433 1155.98 245.595 1408.69 611.022C1761.22 1120.78 1467.29 1678.39 1024.9 1678.39Z" fill="#D88F36"/>
<circle cx="1250.48" cy="1031.92" r="164.06" fill="#F1F0EE"/>
<circle cx="1220.21" cy="1032.89" r="94.7254" fill="black"/>
<circle cx="1274.9" cy="982.112" r="26.3669" fill="#F1F0EE"/>
<circle cx="164.06" cy="164.06" r="164.06" transform="matrix(-1 0 0 1 975.098 867.855)" fill="#F1F0EE"/>
<circle cx="94.7254" cy="94.7254" r="94.7254" transform="matrix(-1 0 0 1 926.27 934.26)" fill="black"/>
<circle cx="26.3669" cy="26.3669" r="26.3669" transform="matrix(-1 0 0 1 910.646 953.792)" fill="#F1F0EE"/>
<path d="M901.855 1374.69C981.933 1432.44 1086.42 1436.69 1161.62 1374.69" stroke="#D87344" stroke-width="23.4372" stroke-linecap="round"/>
<path d="M1117 934.991C1224.82 922.312 1285.4 924.515 1394 952.963C1387.5 934.991 1339 872.632 1261.5 864.99C1176.3 856.59 1133.33 903.491 1117 934.991Z" fill="#DE5222"/>
<path d="M1027.83 1195.98C1042.48 1195.98 1081.51 1251.33 1061.03 1286.8C1040.56 1322.26 1016.08 1322.26 995.603 1286.8C975.126 1251.33 1013.19 1195.98 1027.83 1195.98Z" fill="#DE5222"/>
<path d="M1229.03 320.279C1229.03 257.656 414.924 69.7858 414.924 923.9C414.924 955.211 367.017 1020.1 493.203 1017.83C978.534 1009.14 1229.03 899.546 1229.03 320.279Z" fill="#FECC33"/>
<path d="M1197.71 320.279C1197.71 883.89 1432.55 1009.14 1495.17 1009.14C1620.42 1009.14 1573.45 962.169 1573.45 915.202C1573.45 351.591 1197.71 257.656 1197.71 320.279Z" fill="#FECC33"/>
<path d="M1495.18 836.922C1511.18 1125.09 1259.68 783.136 1328.18 883.89C1393.45 979.895 1464.99 1009.71 1495.56 1009.71C1620.81 1009.71 1573.84 962.743 1573.84 915.776C1573.84 617.914 1468.89 451.232 1369.93 369.56C1281.63 296.604 1479.52 555.117 1495.18 836.922Z" fill="#F9B233"/>
</svg>
