<svg width="54" height="70" viewBox="0 0 54 70" fill="none" xmlns="http://www.w3.org/2000/svg">
<path d="M15.7046 54.9173C14.4658 53.5785 9.24063 52.4321 7.28786 54.1317C2.95767 57.9005 7.57566 60.125 8.78057 61.2893C9.88159 62.3533 11.2185 67.288 15.3423 64.0366C17.7998 62.1003 16.6445 55.9333 15.7046 54.9173Z" fill="#F1A656"/>
<path d="M13.6754 42.117C12.1151 42.5374 9.14201 43.5081 8.06595 46.34C7.41218 48.0604 7.61612 51.5937 10.3417 52.1971C12.41 52.6554 13.8905 51.8711 14.8803 50.2159C16.0785 48.2123 14.7191 46.4521 14.9522 43.3133C14.9937 42.7514 14.8919 41.7895 13.6754 42.117Z" fill="#F1A656"/>
<path d="M29.0749 56.9702C28.9322 56.8249 28.3974 57.6289 27.2235 56.9437C26.0821 56.2778 25.0083 55.7287 22.388 56.1254C21.025 56.3318 16.9381 57.6976 17.1205 60.5039C17.2989 63.2491 17.6861 63.3818 19.6849 64.0406C21.0955 64.5056 25.1978 63.369 27.9069 59.1516C28.5075 58.2168 29.2133 57.1114 29.0749 56.9702Z" fill="#F1A656"/>
<path d="M33.0216 42.9572C33.0216 42.9572 32.1375 43.7493 31.0413 43.8967C28.0939 44.2928 27.4066 45.3263 26.0562 46.6269C23.3778 49.2069 21.4438 52.1674 23.2178 54.0848C25.1644 56.1887 28.5113 55.1225 30.7555 52.2216C32.076 50.5148 32.6147 49.672 32.8243 45.6413C32.87 44.7713 33.4898 44.1982 33.0216 42.9572Z" fill="#F1A656"/>
<path d="M17.4599 46.8491C16.4509 43.8771 19.1391 42.1203 21.3313 40.4739C23.4858 38.855 25.6524 38.6744 26.9946 38.9726C28.2774 39.2571 28.7172 38.4892 29.7557 38.8768C29.7557 38.8768 28.3564 40.2597 28.3265 41.513C28.2756 43.6847 25.6243 45.8848 24.3655 46.691C21.5369 48.5016 17.9994 48.4382 17.4599 46.8491Z" fill="#F1A656"/>
<path d="M30.5575 23.3797C29.212 22.1415 23.9089 21.4054 22.1029 23.2514C18.0984 27.345 22.8855 29.203 24.1828 30.2698C25.3683 31.2447 27.1091 36.0595 30.9506 32.4978C33.24 30.3765 31.5784 24.3192 30.5575 23.3797Z" fill="#F1A656"/>
<path d="M27.4762 10.779C25.9557 11.3194 23.0725 12.5182 22.2341 15.4248C21.7247 17.1905 22.2202 20.6965 24.9869 21.086C27.0864 21.3818 28.4973 20.4849 29.3471 18.7581C30.3757 16.6676 28.8751 15.0189 28.8478 11.8721C28.8428 11.3087 28.6617 10.3579 27.4762 10.779Z" fill="#F1A656"/>
<path d="M44.0545 24.3863C43.9003 24.2525 43.4337 25.0956 42.2069 24.5039C41.0141 23.929 39.8984 23.4651 37.3193 24.0644C35.9777 24.3762 32.017 26.0556 32.4309 28.8387C32.8357 31.5612 33.2327 31.6633 35.2796 32.1645C36.724 32.5182 40.7191 31.0661 43.0707 26.6516C43.592 25.673 44.2042 24.5162 44.0545 24.3863Z" fill="#F1A656"/>
<path d="M46.8295 10.1113C46.8295 10.1113 46.0138 10.9697 44.9333 11.2018C42.0282 11.8259 41.4286 12.9096 40.1901 14.3111C37.7338 17.0911 36.0508 20.1926 37.9777 21.9658C40.092 23.9115 43.3399 22.5883 45.3371 19.5221C46.5121 17.718 46.9793 16.8361 46.8549 12.802C46.8285 11.9313 47.3989 11.3119 46.8295 10.1113Z" fill="#F1A656"/>
<path d="M31.6399 15.2015C30.3884 12.3176 32.9226 10.3572 34.9715 8.54564C36.9852 6.7643 39.1299 6.41571 40.4925 6.60856C41.7946 6.79236 42.1695 5.99268 43.2367 6.2982C43.2367 6.2982 41.9563 7.78554 42.0302 9.0371C42.159 11.2058 39.6982 13.6051 38.5102 14.5066C35.8404 16.5315 32.3091 16.7435 31.6399 15.2015Z" fill="#F1A656"/>
</svg>