<svg width="2048" height="2048" viewBox="0 0 2048 2048" fill="none" xmlns="http://www.w3.org/2000/svg">
<g clip-path="url(#clip0_930_1521)">
<path d="M491.384 596.631C484.872 540.4 534.289 495.209 590.88 496.544C770.129 500.773 915.29 455.272 982.928 429.262C1009.25 419.139 1038.93 419.232 1065.19 429.509C1132.79 455.956 1278.01 502.336 1457.36 498.376C1513.95 497.126 1563.36 542.314 1556.85 598.541C1506.74 1030.88 1305.27 1443.17 1066.76 1609.05C1041.03 1626.95 1007.2 1626.95 981.477 1609.04C742.962 1442.99 541.483 1029.22 491.384 596.631Z" fill="#4C3924"/>
<path d="M929.487 1041.51C917.807 1093.83 903.117 1127.33 887.297 1155.09C877.297 1172.71 865.487 1183 838.797 1198.34C835.557 1200.2 842.677 1200.12 860.507 1195.89C871.657 1193.25 888.507 1181.51 884.597 1186.55C877.457 1195.63 826.677 1231.55 814.487 1263.31C795.877 1311.76 791.217 1417.06 793.867 1420.31C822.717 1456.18 893.867 1560 1023.87 1636.17L1023.74 1172.07C1023.74 1170.41 987.367 1129.67 970.077 1095.25C957.877 1070.97 929.987 1039.25 929.487 1041.51Z" fill="#F0C28F"/>
<path d="M1118.53 1041.13C1130.22 1093.49 1144.94 1126.96 1160.73 1154.71C1170.73 1172.33 1182.53 1182.62 1209.22 1197.96C1212.46 1199.82 1205.34 1199.74 1187.51 1195.52C1176.36 1192.87 1159.51 1181.13 1163.42 1186.17C1170.56 1195.25 1221.34 1231.17 1233.53 1262.93C1252.14 1311.38 1256.8 1416.69 1254.15 1419.98C1225.3 1455.84 1154.15 1559.66 1024.15 1635.83L1024.28 1171.73C1024.28 1170.08 1060.65 1129.33 1077.95 1094.92C1090.12 1070.59 1118.03 1038.83 1118.53 1041.13Z" fill="#F08917"/>
<path d="M491.4 596.611C484.924 540.384 534.333 495.207 590.916 496.537C769.631 500.738 913.773 455.379 981.061 429.361C1007.37 419.19 1037.04 419.177 1063.32 429.403C1131.26 455.836 1277.51 502.355 1457.4 498.374C1513.99 497.121 1563.41 542.314 1556.86 598.537C1506.53 1030.87 1303.54 1443.18 1064.87 1609.06C1039.13 1626.95 1005.3 1626.95 979.58 1609.03C741.23 1442.98 541.225 1029.2 491.4 596.611Z" stroke="#F7A727" stroke-width="50"/>
<path d="M792.757 1533.49C774.987 1525.38 765.637 1503.43 762.017 1509.63C729.657 1565.04 791.237 1632.49 780.627 1632.63C753.927 1632.91 684.757 1599.06 664.937 1584.9C657.187 1579.37 683.227 1622.3 669.787 1614.84C513.247 1527.84 494.647 1359.2 501.517 1292.05C502.517 1282.51 444.737 1360.41 444.737 1360.41C430.327 1360.41 509.177 1195.94 548.287 1125.41C594.477 1042.06 793.877 1308.07 782.647 1467.25C778.677 1523.31 801.837 1537.64 792.757 1533.49Z" fill="#F0C28F"/>
<path d="M839.477 1123.53C830.427 1097.4 776.397 1047.29 704.667 1029.22C562.197 993.34 487.497 1245.36 487.497 1245.36C507.107 1218.36 549.267 1138.78 593.497 1126.82C590.346 1168.03 590.456 1209.43 593.827 1250.62C598.347 1303.16 627.827 1375.2 627.827 1375.2C638.347 1327.47 655.607 1301.72 655.607 1301.72C682.897 1332.08 717.217 1408.37 717.217 1408.37C733.397 1394.37 748.507 1356.59 748.507 1356.59C779.787 1409.99 771.967 1422.21 782.277 1473.39C782.307 1473.39 891.007 1272.35 839.477 1123.53Z" fill="#F08917"/>
<path d="M1108.67 646C1142.61 613.07 1222.57 560.42 1276.67 525.2C1353.79 475.05 1352.77 465.2 1330.06 579.14C1300.99 725.29 1236.43 832.83 1210.12 857.73L1108.67 646Z" fill="#F08917"/>
<path d="M939.567 646C905.627 613.07 825.667 560.42 771.517 525.2C694.397 475.05 695.417 465.2 718.127 579.14C747.247 725.29 811.807 832.83 838.117 857.73L939.567 646Z" fill="#F0C28F"/>
<path d="M1024.12 1171.73C1024.57 988.21 1024.25 624.19 1024.25 624.19C978.557 624.19 964.187 627.54 922.047 657.27C898.277 674.05 851.707 719.71 842.777 764.41C837.777 789.29 843.777 837.76 817.947 893.41C810.617 909.23 794.507 927.56 775.227 943.73C768.037 949.73 833.807 945.36 777.407 952.73C777.407 952.73 774.667 953.21 780.267 957.73C785.267 961.73 847.767 998.86 851.927 1001.47C896.527 1019.47 918.277 1028.95 934.617 1046.89C950.547 1064.38 963.557 1088.77 969.477 1123.53C972.387 1140.53 967.587 1162.53 985.927 1167.22C1003.02 1171.56 1012.52 1172.11 1024.12 1171.73Z" fill="#F08917"/>
<path d="M1024.12 1171.73C1023.67 988.21 1024.65 624.19 1024.65 624.19C1070.34 624.19 1084.71 627.54 1126.84 657.27C1150.62 674.05 1197.19 719.71 1206.12 764.41C1211.12 789.29 1205.12 837.76 1230.94 893.41C1238.27 909.23 1254.39 927.56 1273.66 943.73C1280.85 949.73 1215.08 945.36 1271.49 952.73C1271.49 952.73 1274.22 953.21 1268.63 957.73C1263.63 961.73 1201.13 998.86 1196.97 1001.47C1152.36 1019.47 1130.61 1028.95 1114.28 1046.89C1098.35 1064.38 1085.34 1088.77 1079.41 1123.53C1076.51 1140.53 1081.3 1162.53 1062.96 1167.22C1045.87 1171.56 1035.72 1172.11 1024.12 1171.73Z" fill="#F0C28F"/>
</g>
<defs>
<clipPath id="clip0_930_1521">
<rect width="2048" height="2048" fill="white"/>
</clipPath>
</defs>
</svg>
