<svg width="300" height="300" viewBox="0 0 300 300" fill="none" xmlns="http://www.w3.org/2000/svg">
<g filter="url(#filter0_d_816_1613)">
<path d="M155.422 53.0227C52.8227 52.9589 63.8624 51.965 67.0769 74.4187L84.3318 195.203C86.4783 210.225 112.989 246.968 155.422 246.968C198.098 246.968 224.474 209.466 226.512 195.203L243.767 74.4187C246.95 52.0927 256.851 53.0865 155.422 53.0227Z" fill="#4C3923"/>
<path d="M155.422 53.0227C52.8227 52.9589 63.8624 51.965 67.0769 74.4187L84.3318 195.203C86.4783 210.225 112.989 246.968 155.422 246.968C198.098 246.968 224.474 209.466 226.512 195.203L243.767 74.4187C246.95 52.0927 256.851 53.0865 155.422 53.0227Z" stroke="#FBA821" stroke-width="8.62744" stroke-miterlimit="10"/>
</g>
<path d="M115.35 256.996C112.282 255.597 110.671 251.809 110.046 252.879C104.462 262.442 115.088 274.078 113.255 274.102C108.65 274.149 96.7149 268.308 93.295 265.867C91.9577 264.911 96.4509 272.318 94.1318 271.031C67.121 256.019 63.9116 226.921 65.097 215.334C65.2696 213.688 55.2997 227.129 55.2997 227.129C52.8133 227.129 66.4188 198.75 73.1671 186.58C81.1354 172.197 115.543 218.097 113.606 245.563C112.921 255.239 116.917 257.712 115.35 256.996Z" fill="#F0C28F"/>
<path d="M125.572 177.175C123.289 173.588 118.592 167.636 106.215 164.518C81.6236 158.326 62.6777 207.279 62.6777 207.279C66.0614 202.621 73.3343 188.889 80.9679 186.826C80.4253 193.937 80.4449 201.079 81.0266 208.187C81.8065 217.253 86.8932 229.683 86.8932 229.683C88.7084 221.447 91.6849 217.004 91.6849 217.004C97.2358 222.317 104.319 240.083 113.624 245.666C113.628 245.666 134.846 191.762 125.572 177.175Z" fill="#F08917"/>
<path d="M139.03 159.197C137.015 168.232 134.473 174.007 131.75 178.795C130.025 181.837 127.989 183.613 123.383 186.258C122.823 186.581 124.053 186.567 127.128 185.837C129.052 185.382 131.959 183.356 131.284 184.224C130.054 185.791 125.999 189.607 124.522 190.335C118.568 193.269 118.618 192.67 119.187 197.47C122.196 222.797 117.677 232.303 118.271 232.725C126.475 238.592 140.064 243.677 155.277 243.677L155.3 181.732C155.3 181.447 149.022 174.418 146.039 168.479C143.924 164.282 139.111 158.809 139.03 159.197Z" fill="#F0C28F"/>
<path d="M171.561 159.197C173.576 168.232 176.118 174.007 178.841 178.795C180.566 181.837 182.604 183.613 187.209 186.258C187.768 186.581 186.538 186.567 183.463 185.837C181.539 185.382 178.632 183.356 179.307 184.224C180.539 185.791 189.301 191.988 191.404 197.47C194.615 205.83 194.76 231.071 194.165 231.499C185.208 238.012 170.526 243.677 155.309 243.677L155.286 181.732C155.286 181.447 161.562 174.418 164.545 168.479C166.662 164.282 171.469 158.809 171.561 159.197Z" fill="#F08917"/>
<path d="M169.86 91.0179C175.716 85.3358 189.513 76.2511 198.857 70.1757C212.164 61.5206 211.988 59.8228 208.069 79.4812C203.043 104.701 191.905 123.248 187.363 127.552L169.86 91.0179Z" fill="#F08917"/>
<path d="M140.682 91.0179C134.826 85.3358 121.029 76.2511 111.694 70.1757C98.3868 61.5206 98.5628 59.8228 102.481 79.4812C107.506 104.701 118.646 123.248 123.187 127.552L140.682 91.0179Z" fill="#F0C28F"/>
<path d="M155.293 181.732C155.369 150.068 155.293 87.2546 155.293 87.2546C147.409 87.2546 144.93 87.8327 137.658 92.9643C133.557 95.8579 125.52 103.738 123.979 111.451C123.116 115.742 124.151 124.108 119.696 133.71C118.431 136.44 115.651 139.601 112.325 142.391C111.084 143.426 122.433 142.674 112.699 143.944C112.699 143.944 112.228 144.025 113.193 144.807C114.055 145.497 124.841 151.903 125.559 152.354C133.255 155.46 137.008 157.094 139.827 160.189C142.576 163.207 144.819 167.416 145.842 173.413C146.343 176.347 145.516 180.143 148.681 180.954C151.626 181.703 153.291 181.798 155.293 181.732Z" fill="#F08917"/>
<path d="M155.36 181.289C155.284 149.625 155.36 86.812 155.36 86.812C163.244 86.812 165.723 87.39 172.994 92.5216C177.096 95.4153 185.133 103.296 186.674 111.009C187.537 115.3 186.502 123.665 190.957 133.267C192.222 135.997 195.001 139.158 198.328 141.948C199.569 142.984 188.22 142.231 197.954 143.501C197.954 143.501 198.425 143.582 197.46 144.364C196.597 145.054 185.811 151.461 185.094 151.911C177.398 155.017 173.645 156.651 170.825 159.747C168.077 162.765 165.834 166.973 164.81 172.971C164.31 175.904 165.137 179.7 161.972 180.511C159.023 181.26 157.361 181.355 155.36 181.289Z" fill="#F0C28F"/>
<defs>
<filter id="filter0_d_816_1613" x="60.7759" y="48.6863" width="189.131" height="206.195" filterUnits="userSpaceOnUse" color-interpolation-filters="sRGB">
<feFlood flood-opacity="0" result="BackgroundImageFix"/>
<feColorMatrix in="SourceAlpha" type="matrix" values="0 0 0 0 0 0 0 0 0 0 0 0 0 0 0 0 0 0 127 0" result="hardAlpha"/>
<feOffset dy="3.6"/>
<feComposite in2="hardAlpha" operator="out"/>
<feColorMatrix type="matrix" values="0 0 0 0 0.504808 0 0 0 0 0.345875 0 0 0 0 0.0873706 0 0 0 1 0"/>
<feBlend mode="normal" in2="BackgroundImageFix" result="effect1_dropShadow_816_1613"/>
<feBlend mode="normal" in="SourceGraphic" in2="effect1_dropShadow_816_1613" result="shape"/>
</filter>
</defs>
</svg>
