<svg width="2048" height="2048" viewBox="0 0 2048 2048" fill="none" xmlns="http://www.w3.org/2000/svg">
<g clip-path="url(#clip0_930_1521)">
<path d="M481.94 488C785.26 529.85 1024 412 1024 412C1024 412 1262.74 531.74 1566.06 489.92C1538.66 986 1301.1 1480.62 1024 1636C746.9 1480.62 509.34 984.09 481.94 488Z" fill="#4C3924"/>
<path d="M929.37 1041.68C917.69 1094 903 1127.5 887.18 1155.26C877.18 1172.88 865.37 1183.17 838.68 1198.51C835.44 1200.37 842.56 1200.29 860.39 1196.06C871.54 1193.42 888.39 1181.68 884.48 1186.72C877.34 1195.8 826.56 1231.72 814.37 1263.48C795.76 1311.93 791.1 1417.23 793.75 1420.48C822.6 1456.35 893.75 1560.17 1023.75 1636.34L1023.62 1172.24C1023.62 1170.58 987.25 1129.84 969.96 1095.42C957.76 1071.14 929.87 1039.42 929.37 1041.68Z" fill="#F0C28F"/>
<path d="M1118.41 1041.3C1130.1 1093.66 1144.82 1127.13 1160.61 1154.88C1170.61 1172.5 1182.41 1182.79 1209.1 1198.13C1212.34 1199.99 1205.22 1199.91 1187.39 1195.69C1176.24 1193.04 1159.39 1181.3 1163.3 1186.34C1170.44 1195.42 1221.22 1231.34 1233.41 1263.1C1252.02 1311.55 1256.68 1416.86 1254.03 1420.15C1225.18 1456.01 1154.03 1559.83 1024.03 1636L1024.16 1171.9C1024.16 1170.25 1060.53 1129.5 1077.83 1095.09C1090 1070.76 1117.91 1039 1118.41 1041.3Z" fill="#F08917"/>
<path d="M482 488C785.31 529.82 1022.1 412 1022.1 412C1022.1 412 1262.79 531.74 1566.1 489.92C1538.71 985.98 1299.19 1480.62 1022.1 1636C745 1480.62 509.34 984.09 482 488Z" stroke="#F7A727" stroke-width="50"/>
<path d="M792.64 1533.66C774.87 1525.55 765.52 1503.6 761.9 1509.8C729.54 1565.21 791.12 1632.66 780.51 1632.8C753.81 1633.08 684.64 1599.23 664.82 1585.07C657.07 1579.54 683.11 1622.47 669.67 1615.01C513.13 1528.01 494.53 1359.37 501.4 1292.22C502.4 1282.68 444.62 1360.58 444.62 1360.58C430.21 1360.58 509.06 1196.11 548.17 1125.58C594.36 1042.23 793.76 1308.24 782.53 1467.42C778.56 1523.48 801.72 1537.81 792.64 1533.66Z" fill="#F0C28F"/>
<path d="M839.36 1123.7C830.31 1097.57 776.28 1047.46 704.55 1029.39C562.08 993.51 487.38 1245.53 487.38 1245.53C506.99 1218.53 549.15 1138.95 593.38 1126.99C590.229 1168.2 590.339 1209.6 593.71 1250.79C598.23 1303.33 627.71 1375.37 627.71 1375.37C638.23 1327.64 655.49 1301.89 655.49 1301.89C682.78 1332.25 717.1 1408.54 717.1 1408.54C733.28 1394.54 748.39 1356.76 748.39 1356.76C779.67 1410.16 771.85 1422.38 782.16 1473.56C782.19 1473.56 890.89 1272.52 839.36 1123.7Z" fill="#F08917"/>
<path d="M1108.55 646.17C1142.49 613.24 1222.45 560.59 1276.55 525.37C1353.67 475.22 1352.65 465.37 1329.94 579.31C1300.87 725.46 1236.31 833 1210 857.9L1108.55 646.17Z" fill="#F08917"/>
<path d="M939.45 646.17C905.51 613.24 825.55 560.59 771.4 525.37C694.28 475.22 695.3 465.37 718.01 579.31C747.13 725.46 811.69 833 838 857.9L939.45 646.17Z" fill="#F0C28F"/>
<path d="M1024 1171.9C1024.45 988.38 1024.13 624.36 1024.13 624.36C978.44 624.36 964.07 627.71 921.93 657.44C898.16 674.22 851.59 719.88 842.66 764.58C837.66 789.46 843.66 837.93 817.83 893.58C810.5 909.4 794.39 927.73 775.11 943.9C767.92 949.9 833.69 945.53 777.29 952.9C777.29 952.9 774.55 953.38 780.15 957.9C785.15 961.9 847.65 999.03 851.81 1001.64C896.41 1019.64 918.16 1029.12 934.5 1047.06C950.43 1064.55 963.44 1088.94 969.36 1123.7C972.27 1140.7 967.47 1162.7 985.81 1167.39C1002.9 1171.73 1012.4 1172.28 1024 1171.9Z" fill="#F08917"/>
<path d="M1024 1171.9C1023.55 988.38 1024.53 624.36 1024.53 624.36C1070.22 624.36 1084.59 627.71 1126.72 657.44C1150.5 674.22 1197.07 719.88 1206 764.58C1211 789.46 1205 837.93 1230.82 893.58C1238.15 909.4 1254.27 927.73 1273.54 943.9C1280.73 949.9 1214.96 945.53 1271.37 952.9C1271.37 952.9 1274.1 953.38 1268.51 957.9C1263.51 961.9 1201.01 999.03 1196.85 1001.64C1152.24 1019.64 1130.49 1029.12 1114.16 1047.06C1098.23 1064.55 1085.22 1088.94 1079.29 1123.7C1076.39 1140.7 1081.18 1162.7 1062.84 1167.39C1045.75 1171.73 1035.6 1172.28 1024 1171.9Z" fill="#F0C28F"/>
</g>
<defs>
<clipPath id="clip0_930_1521">
<rect width="2048" height="2048" fill="white"/>
</clipPath>
</defs>
</svg>