<svg width="54" height="70" viewBox="0 0 54 70" fill="none" xmlns="http://www.w3.org/2000/svg">
<path d="M14.6963 42.3028C21.9797 38.4827 28.9167 39.1868 31.4747 40.0163C33.3615 41.6449 29.6467 43.2945 27.5534 43.9158C24.6868 44.2792 18.3699 49.3876 15.5699 51.8964C12.2135 56.1924 8.74777 55.581 7.43444 54.7382C2.87824 50.4566 10.3773 44.6639 14.6963 42.3028Z" fill="#DBC8B5"/>
<path d="M31.1631 44.2399C32.0082 43.6771 33.137 43.2606 33.5958 43.1226C36.7331 46.765 30.9204 52.907 27.6219 55.5227C20.8944 62.5169 16.1575 63.3671 14.63 62.9179C10.679 62.633 10.9189 59.0626 11.5327 57.3131C13.1401 54.2315 19.3994 51.5713 22.3281 50.6265C24.063 49.8734 28.941 46.055 31.1631 44.2399Z" fill="#DBC8B5"/>
<path d="M26.8317 13.5205C32.3486 7.42097 39.1022 5.68707 41.7894 5.58256C44.1224 6.4597 41.2054 9.2903 39.4552 10.596C36.8903 11.9267 32.7252 18.9016 30.9633 22.2228C29.2963 27.4133 25.8325 28.0359 24.309 27.6983C18.5548 25.2527 23.5932 17.2274 26.8317 13.5205Z" fill="#DBC8B5"/>
<path d="M42.9548 9.65412C43.5537 8.8342 44.4693 8.05356 44.8523 7.76574C49.0541 10.1012 45.719 17.8722 43.5262 21.4657C39.6266 30.3524 35.4744 32.7855 33.8858 32.8912C30.0793 33.9877 29.0719 30.554 29.0441 28.7001C29.4889 25.2531 34.4451 20.5957 36.8676 18.698C38.2359 17.3922 41.4958 12.1247 42.9548 9.65412Z" fill="#DBC8B5"/>
</svg>
