<svg width="2048" height="2048" viewBox="0 0 2048 2048" fill="none" xmlns="http://www.w3.org/2000/svg">
<g clip-path="url(#clip0_930_1505)">
<path d="M481.94 488C785.26 529.85 1024 412 1024 412C1024 412 1262.74 531.74 1566.06 489.92C1538.66 986 1301.1 1480.62 1024 1636C746.9 1480.62 509.34 984.09 481.94 488Z" fill="#4C3924"/>
<path d="M1192.79 722.83C1228.38 687.77 1270.53 695.83 1326.12 728.76C1365.12 751.87 1335.47 757.35 1315.33 774.42C1296.03 790.79 1235.33 801.67 1210.94 799.51L1192.79 722.83Z" fill="#A27028"/>
<path d="M855.21 722.83C819.62 687.77 777.47 695.83 721.88 728.76C682.88 751.87 712.53 757.35 732.67 774.42C751.97 790.79 812.67 801.67 837.06 799.51L855.21 722.83Z" fill="#E2B270"/>
<path d="M912 1051.29C897 1060.09 864 1106.29 835 1217.79C789.95 1390.79 782.19 1402.18 782.19 1402.18C798.21 1425.11 888.1 1561.58 1024 1636V1161.29C964.37 1166.2 912 1051.29 912 1051.29Z" fill="#E2B270"/>
<path d="M1136.62 1050.91C1151.62 1059.72 1184.62 1105.91 1213.62 1217.42C1258.62 1390.42 1266.43 1401.81 1266.43 1401.81C1250.43 1424.73 1165.17 1559.16 1023.99 1636V1160.91C1083.63 1165.83 1136.62 1050.91 1136.62 1050.91Z" fill="#A27028"/>
<path d="M482 488C785.31 529.82 1022.1 412 1022.1 412C1022.1 412 1262.79 531.74 1566.1 489.92C1538.71 985.98 1299.19 1480.62 1022.1 1636C745 1480.62 509.34 984.09 482 488Z" stroke="#F7A727" stroke-width="50"/>
<path d="M1069.21 633.79C1081.02 638.79 1134.86 680.55 1157.95 674.1C1316.47 629.77 1463.14 540.93 1527.54 419.65C1596.62 289.54 1553.37 159.19 1541.36 165.19C1527.54 172.1 1538.07 227.64 1534.55 280.81C1531 334.44 1508.11 349.44 1486.09 334.44C1406.65 280.33 1401.09 145.88 1391.68 143.32C1376.38 139.17 1371 184.76 1374.41 222.76C1382.18 309.5 1443.49 306.37 1436.58 408.84C1432.58 468.21 1363.36 545.62 1343.32 545.14C1294.97 543.99 1347.93 373.59 1285.06 354.59C1278.06 352.49 1300.72 389.71 1285.06 458.22C1262.06 558.69 1226.54 600.14 1175.22 615.38C1152.41 622.15 1116.38 609.18 1108.44 583.14C1093.68 534.7 1166.53 468.45 1160.26 462.25C1154.55 456.61 1089.52 480.25 1080.81 545.14C1072.76 605.15 1062.82 626 1069.21 633.79Z" fill="#A27028"/>
<path d="M978.79 633.79C966.98 638.79 913.14 680.55 890.05 674.1C731.53 629.77 584.86 540.93 520.46 419.65C451.38 289.54 494.63 159.19 506.64 165.19C520.46 172.1 509.93 227.64 513.45 280.81C517 334.44 539.89 349.44 561.91 334.44C641.35 280.33 646.91 145.88 656.32 143.32C671.62 139.17 677 184.76 673.59 222.76C665.82 309.5 604.51 306.37 611.42 408.84C615.42 468.21 684.64 545.62 704.68 545.14C753 544 700.07 373.59 762.94 354.59C769.89 352.49 747.28 389.71 762.94 458.22C785.94 558.69 821.46 600.14 872.78 615.38C895.59 622.15 931.62 609.18 939.56 583.14C954.32 534.7 881.47 468.45 887.74 462.25C893.45 456.61 958.48 480.25 967.19 545.14C975.24 605.15 985.18 626 978.79 633.79Z" fill="#E2B270"/>
<path d="M1024 1160.91C1023.55 977.4 1024.45 799.77 1024 613.37C1063.66 614.06 1084.06 616.72 1126.2 646.46C1149.97 663.23 1196.54 708.9 1205.47 753.6C1216.36 808.08 1215.23 833.89 1177.47 915.4C1146.33 982.54 1141.87 1025.4 1124.61 1104.16C1118.13 1133.72 1092.38 1143.01 1077.15 1150.54C1056.56 1160.71 1035.6 1161.29 1024 1160.91Z" fill="#E2B270"/>
<path d="M1024 1160.91C1024.45 977.4 1023.55 799.77 1024 613.37C984.34 614.06 963.94 616.72 921.8 646.46C898 663.23 851.46 708.9 842.53 753.6C831.64 808.08 832.77 833.89 870.53 915.4C901.67 982.54 906.13 1025.4 923.39 1104.16C929.87 1133.72 955.62 1143.01 970.85 1150.54C991.44 1160.71 1012.4 1161.29 1024 1160.91Z" fill="#A27028"/>
</g>
<defs>
<clipPath id="clip0_930_1505">
<rect width="2048" height="2048" fill="white"/>
</clipPath>
</defs>
</svg>