<svg width="2048" height="2058" viewBox="0 0 2048 2058" fill="none" xmlns="http://www.w3.org/2000/svg">
<g clip-path="url(#clip0_1157_1527)">
<path d="M481.94 490.383C785.26 532.437 1024 414.012 1024 414.012C1024 414.012 1262.74 534.336 1566.06 492.312C1538.66 990.814 1301.1 1487.85 1024 1643.99C746.9 1487.85 509.34 988.895 481.94 490.383Z" fill="#4C3924"/>
<path d="M1192.79 726.359C1228.38 691.128 1270.53 699.228 1326.12 732.318C1365.12 755.541 1335.47 761.048 1315.33 778.201C1296.03 794.651 1235.33 805.584 1210.94 803.414L1192.79 726.359Z" fill="#A27028"/>
<path d="M855.21 726.359C819.62 691.128 777.47 699.228 721.88 732.318C682.88 755.541 712.53 761.048 732.67 778.201C751.97 794.651 812.67 805.584 837.06 803.414L855.21 726.359Z" fill="#E2B270"/>
<path d="M912 1056.42C897 1065.27 864 1111.69 835 1223.74C789.95 1397.58 782.19 1409.03 782.19 1409.03C798.21 1432.07 888.1 1569.2 1024 1643.99V1166.96C964.37 1171.89 912 1056.42 912 1056.42Z" fill="#E2B270"/>
<path d="M1136.62 1056.04C1151.62 1064.89 1184.62 1111.31 1213.62 1223.36C1258.62 1397.21 1266.43 1408.65 1266.43 1408.65C1250.43 1431.69 1165.17 1566.77 1023.99 1643.99V1166.58C1083.63 1171.52 1136.62 1056.04 1136.62 1056.04Z" fill="#A27028"/>
<path d="M491.228 599.213C484.796 542.966 534.241 497.799 590.839 499.134C769.375 503.344 913.403 457.853 980.763 431.699C1007.17 421.447 1037 421.433 1063.38 431.741C1131.4 458.313 1277.53 504.968 1457.24 500.979C1513.85 499.723 1563.3 544.905 1556.8 601.148C1506.57 1035.68 1303.59 1450.16 1064.9 1616.98C1039.09 1635.02 1005.1 1635.02 979.318 1616.96C740.944 1449.96 540.949 1034 491.228 599.213Z" stroke="#F7A727" stroke-width="50"/>
<path d="M1069.21 636.885C1081.02 641.909 1134.86 683.873 1157.95 677.392C1316.47 632.845 1463.14 543.571 1527.54 421.699C1596.62 290.954 1553.37 159.967 1541.36 165.997C1527.54 172.94 1538.07 228.752 1534.55 282.181C1531 336.073 1508.11 351.146 1486.09 336.073C1406.65 281.699 1401.09 146.592 1391.68 144.02C1376.38 139.85 1371 185.662 1374.41 223.848C1382.18 311.011 1443.49 307.866 1436.58 410.836C1432.58 470.496 1363.36 548.284 1343.32 547.802C1294.97 546.646 1347.93 375.414 1285.06 356.321C1278.06 354.211 1300.72 391.613 1285.06 460.457C1262.06 561.418 1226.54 603.07 1175.22 618.385C1152.41 625.188 1116.38 612.155 1108.44 585.987C1093.68 537.311 1166.53 470.737 1160.26 464.507C1154.55 458.84 1089.52 482.595 1080.81 547.802C1072.76 608.105 1062.82 629.057 1069.21 636.885Z" fill="#A27028"/>
<path d="M978.79 636.885C966.98 641.909 913.14 683.873 890.05 677.392C731.53 632.845 584.86 543.571 520.46 421.699C451.38 290.954 494.63 159.967 506.64 165.997C520.46 172.94 509.93 228.752 513.45 282.181C517 336.073 539.89 351.146 561.91 336.073C641.35 281.699 646.91 146.592 656.32 144.02C671.62 139.85 677 185.662 673.59 223.848C665.82 311.011 604.51 307.866 611.42 410.836C615.42 470.496 684.64 548.284 704.68 547.802C753 546.656 700.07 375.414 762.94 356.321C769.89 354.211 747.28 391.613 762.94 460.457C785.94 561.418 821.46 603.07 872.78 618.385C895.59 625.188 931.62 612.155 939.56 585.987C954.32 537.311 881.47 470.737 887.74 464.507C893.45 458.84 958.48 482.595 967.19 547.802C975.24 608.105 985.18 629.057 978.79 636.885Z" fill="#E2B270"/>
<path d="M1024 1166.58C1023.55 982.172 1024.45 803.675 1024 616.365C1063.66 617.058 1084.06 619.731 1126.2 649.617C1149.97 666.468 1196.54 712.361 1205.47 757.28C1216.36 812.026 1215.23 837.962 1177.47 919.87C1146.33 987.338 1141.87 1030.41 1124.61 1109.55C1118.13 1139.26 1092.38 1148.59 1077.15 1156.16C1056.56 1166.38 1035.6 1166.96 1024 1166.58Z" fill="#E2B270"/>
<path d="M1024 1166.58C1024.45 982.172 1023.55 803.675 1024 616.365C984.34 617.058 963.94 619.731 921.8 649.617C898 666.468 851.46 712.361 842.53 757.28C831.64 812.026 832.77 837.962 870.53 919.87C901.67 987.338 906.13 1030.41 923.39 1109.55C929.87 1139.26 955.62 1148.59 970.85 1156.16C991.44 1166.38 1012.4 1166.96 1024 1166.58Z" fill="#A27028"/>
</g>
<defs>
<clipPath id="clip0_1157_1527">
<rect width="2048" height="2058" fill="white"/>
</clipPath>
</defs>
</svg>
