<svg width="300" height="300" viewBox="0 0 300 300" fill="none" xmlns="http://www.w3.org/2000/svg">
<g filter="url(#filter0_d_816_1647)">
<path d="M150.63 52.9215C48.0372 52.8577 59.0769 51.8673 62.2846 74.3176L79.5395 195.102C81.6843 210.113 108.196 246.866 150.63 246.866C193.304 246.866 219.682 209.365 221.72 195.102L238.975 74.3176C242.167 51.9915 252.064 52.9836 150.63 52.9215Z" fill="#4C3923"/>
<path d="M150.63 52.9215C48.0372 52.8577 59.0769 51.8673 62.2846 74.3176L79.5395 195.102C81.6843 210.113 108.196 246.866 150.63 246.866C193.304 246.866 219.682 209.365 221.72 195.102L238.975 74.3176C242.167 51.9915 252.064 52.9836 150.63 52.9215Z" stroke="#FBA821" stroke-width="8.62744" stroke-miterlimit="10"/>
</g>
<path d="M179.608 106.041C185.749 99.9913 193.022 101.382 202.614 107.064C209.343 111.05 204.227 111.995 200.752 114.943C197.424 117.767 186.948 119.645 182.741 119.272L179.608 106.041Z" fill="#A27028"/>
<path d="M121.361 106.041C115.218 99.9913 107.945 101.382 98.3531 107.064C91.6237 111.05 96.7415 111.995 100.215 114.943C103.545 117.767 114.019 119.645 118.227 119.272L121.361 106.041Z" fill="#E2B270"/>
<path d="M169.685 162.65C172.274 164.169 177.968 172.141 182.972 191.381C190.736 221.232 194.877 227.272 194.877 227.272C186.129 235.614 168.54 243.562 150.412 243.562V181.631C160.697 182.478 169.685 162.65 169.685 162.65Z" fill="#A27028"/>
<path d="M131.205 162.65C128.617 164.169 122.923 172.141 117.919 191.381C110.154 221.232 106.013 227.272 106.013 227.272C114.761 235.614 132.349 243.562 150.479 243.562V181.631C140.192 182.478 131.205 162.65 131.205 162.65Z" fill="#E2B270"/>
<path d="M158.285 90.6771C160.323 91.5398 169.614 98.7455 173.598 97.6308C200.949 89.9834 226.257 74.6542 237.369 53.7258C249.29 31.2772 241.823 8.7837 239.752 9.82072C237.367 11.013 239.184 20.5947 238.577 29.7691C237.964 39.0246 234.016 41.6128 230.215 39.0246C216.51 29.688 215.557 6.48708 213.927 6.04535C211.281 5.331 210.36 13.1958 210.947 19.7544C212.287 34.7195 222.866 34.1794 221.676 51.8622C220.986 62.1047 209.04 75.4635 205.584 75.3806C197.239 75.1822 206.378 45.7799 195.529 42.5015C194.322 42.1391 198.232 48.5614 195.529 60.381C191.561 77.7187 185.432 84.8708 176.578 87.4987C172.643 88.6669 166.424 86.4289 165.056 81.9375C162.509 73.5792 175.077 62.1479 173.995 61.0763C173.012 60.1032 161.789 64.1822 160.286 75.3806C158.897 85.7353 157.182 89.3416 158.285 90.6771Z" fill="#A27028"/>
<path d="M142.683 90.6771C140.647 91.5398 131.355 98.7455 127.371 97.6308C100.019 89.9834 74.7108 74.6542 63.5987 53.7258C51.6738 31.2772 59.1434 8.7837 61.214 9.82072C63.5987 11.013 61.7817 20.5947 62.3891 29.7691C63.0034 39.0246 66.9513 41.6128 70.7508 39.0246C84.4581 29.688 85.4123 6.48708 87.0463 6.04535C89.688 5.331 90.6146 13.1958 90.0262 19.7544C88.6855 34.7195 78.1066 34.1794 79.2989 51.8622C79.9891 62.1047 91.9346 75.4635 95.3908 75.3806C103.735 75.1822 94.5953 45.7799 105.443 42.5015C106.651 42.1391 102.741 48.5614 105.443 60.381C109.412 77.7187 115.541 84.8708 124.396 87.4987C128.332 88.6669 134.549 86.4289 135.919 81.9375C138.466 73.5792 125.891 62.1479 126.974 61.0763C127.958 60.1032 139.178 64.1822 140.681 75.3806C142.072 85.7353 143.786 89.3416 142.683 90.6771Z" fill="#E2B270"/>
<path d="M150.484 181.631C150.406 149.965 150.563 119.315 150.484 87.1536C157.327 87.2709 160.847 87.7316 168.118 92.8615C172.22 95.7568 180.255 103.635 181.796 111.35C183.675 120.751 183.48 125.202 176.965 139.267C171.592 150.853 170.822 158.247 167.846 171.839C166.727 176.939 162.283 178.542 159.655 179.842C156.102 181.596 152.485 181.697 150.484 181.631Z" fill="#E2B270"/>
<path d="M150.484 181.631C150.561 149.965 150.406 119.315 150.484 87.1536C143.64 87.2709 140.12 87.7316 132.851 92.8615C128.748 95.7568 120.712 103.635 119.171 111.35C117.294 120.751 117.487 125.202 124.011 139.267C129.384 150.853 130.152 158.247 133.13 171.839C134.248 176.939 138.693 178.542 141.319 179.842C144.867 181.596 148.484 181.697 150.484 181.631Z" fill="#A27028"/>
<defs>
<filter id="filter0_d_816_1647" x="55.9873" y="48.5852" width="189.131" height="206.195" filterUnits="userSpaceOnUse" color-interpolation-filters="sRGB">
<feFlood flood-opacity="0" result="BackgroundImageFix"/>
<feColorMatrix in="SourceAlpha" type="matrix" values="0 0 0 0 0 0 0 0 0 0 0 0 0 0 0 0 0 0 127 0" result="hardAlpha"/>
<feOffset dy="3.6"/>
<feComposite in2="hardAlpha" operator="out"/>
<feColorMatrix type="matrix" values="0 0 0 0 0.504808 0 0 0 0 0.345875 0 0 0 0 0.0873706 0 0 0 1 0"/>
<feBlend mode="normal" in2="BackgroundImageFix" result="effect1_dropShadow_816_1647"/>
<feBlend mode="normal" in="SourceGraphic" in2="effect1_dropShadow_816_1647" result="shape"/>
</filter>
</defs>
</svg>
