<svg width="54" height="70" viewBox="0 0 54 70" fill="none" xmlns="http://www.w3.org/2000/svg">
<path d="M44.6522 5.71295L43.4784 6.65323C43.4784 6.65323 42.7219 6.31227 42.2042 6.77615C39.3313 9.35159 35.4763 13.1815 31.3493 17.3815C30.7023 18.0398 29.1805 17.6388 28.95 17.2484C27.7241 15.173 28.6208 7.05632 26.8763 5.20443C26.7842 5.10648 26.2588 4.78632 26.2588 4.78632C25.7127 4.17989 25.6809 3.45456 25.7572 3.31317C25.2127 3.41323 25.3262 4.84569 25.3262 4.84569C25.3262 4.84569 24.7373 5.3939 24.6072 5.78385C24.1513 7.15236 24.8479 18.163 25.2785 22.3315C25.3746 23.2644 24.5418 24.3734 24.0282 24.9669C22.9798 26.1784 22.6509 26.956 23.8173 28.2594C25.0282 29.6126 26.2879 28.7551 27.1988 27.8487C27.9568 27.0939 29.6117 26.2913 29.8968 26.3189C35.3283 26.8321 40.7024 26.5021 46.0356 26.074C46.3376 26.0496 47.2719 25.3141 47.2719 25.3141C48.0539 25.107 48.4378 25.0241 48.6236 24.5419C48.6236 24.5419 48.0682 24.7693 47.2099 24.3448C47.1044 24.2929 46.8557 23.5146 46.349 23.4439C43.0376 22.9811 37.7608 22.8705 34.662 22.5533C33.7912 22.4641 33.3326 21.1255 33.794 20.5475C35.9119 17.8955 41.8958 11.6958 43.6912 9.04483C44.4757 7.8863 43.9419 7.22802 43.9419 7.22802C44.5453 6.55581 44.6522 5.71295 44.6522 5.71295Z" fill="#F4E084"/>
<path d="M31.8804 40.7295L30.6054 41.5272C30.6054 41.5272 29.8935 41.1007 29.3256 41.5014C26.1733 43.7261 21.8999 47.0829 17.3134 50.7756C16.5944 51.3545 15.1295 50.7796 14.9457 50.3651C13.969 48.1614 15.8014 40.2036 14.2836 38.1618C14.2034 38.0539 13.7188 37.6749 13.7188 37.6749C13.2467 37.0092 13.2993 36.2851 13.3915 36.1535C12.839 36.1897 12.7855 37.6257 12.7855 37.6257C12.7855 37.6257 12.1371 38.1018 11.9625 38.4741C11.3509 39.7804 10.7653 50.7975 10.7093 54.9878C10.6965 55.9256 9.74066 56.9305 9.16166 57.4603C7.97977 58.5421 7.56287 59.2762 8.57012 60.7061C9.61584 62.1907 10.9666 61.4852 11.9765 60.6906C12.8169 60.0288 14.5538 59.4236 14.8338 59.4841C20.169 60.6241 25.5451 60.9199 30.8919 61.1135C31.1947 61.1243 32.2081 60.5022 32.2081 60.5022C33.0089 60.3872 33.3997 60.3494 33.6403 59.8921C33.6403 59.8921 33.0622 60.0534 32.2589 59.5322C32.1603 59.4684 32.0035 58.6665 31.5084 58.5375C28.273 57.6936 23.0447 56.9715 20.0037 56.2969C19.1491 56.1073 18.849 54.7245 19.3743 54.2039C21.7856 51.8156 28.4484 46.352 30.5393 43.9273C31.4529 42.8676 30.9991 42.1519 30.9991 42.1519C31.6764 41.5542 31.8804 40.7295 31.8804 40.7295Z" fill="#F4E084"/>
</svg>
