<svg width="300" height="300" viewBox="0 0 300 300" fill="none" xmlns="http://www.w3.org/2000/svg">
<g filter="url(#filter0_d_816_1612)">
<path d="M150.029 53.0226C47.4367 52.9588 58.4763 51.9683 61.684 74.4187L78.9389 195.203C81.0854 210.225 107.596 246.967 150.029 246.967C192.706 246.967 219.081 209.466 221.119 195.203L238.374 74.4187C241.561 52.0926 251.465 53.0864 150.029 53.0226Z" fill="#4C3923"/>
<path d="M150.029 53.0226C47.4367 52.9588 58.4763 51.9683 61.684 74.4187L78.9389 195.203C81.0854 210.225 107.596 246.967 150.029 246.967C192.706 246.967 219.081 209.466 221.119 195.203L238.374 74.4187C241.561 52.0926 251.465 53.0864 150.029 53.0226Z" stroke="#FBA821" stroke-width="8.62744" stroke-miterlimit="10"/>
</g>
<path d="M139.062 159.587C99.3468 147.531 85.7913 83.3361 76.082 88.0708C27.7701 111.632 23.9981 200.683 35.3311 208.736C40.4179 212.359 41.6499 194.932 41.6499 194.932C42.0726 212.901 43.2028 222.593 50.9675 225.278C53.4229 225.955 55.93 213.057 55.93 213.057C57.1482 230.21 60.8666 233.314 67.244 235.336C71.2627 236.609 70.6778 222.73 70.6778 222.73C72.3636 227.694 76.8102 238.42 85.3134 240.307C89.0249 241.13 88.402 228.056 88.402 228.056C88.7005 236.107 97.2727 242.271 99.949 241.289C103.745 239.895 101.381 235.21 102.173 225.948C104.195 202.243 160.724 166.163 139.062 159.587Z" fill="#445D9A"/>
<path d="M161.016 159.587C200.732 147.531 214.287 83.3361 223.996 88.0708C272.31 111.632 276.084 200.683 264.751 208.736C259.662 212.359 258.432 194.932 258.432 194.932C258.009 212.901 256.879 222.593 249.114 225.278C246.657 225.955 244.15 213.057 244.15 213.057C242.932 230.21 239.213 233.314 232.836 235.336C228.817 236.609 229.402 222.73 229.402 222.73C227.717 227.694 223.27 238.42 214.767 240.307C211.057 241.13 211.678 228.056 211.678 228.056C211.38 236.107 202.807 242.271 200.131 241.289C196.335 239.895 198.699 235.21 197.907 225.948C195.885 202.243 139.356 166.163 161.016 159.587Z" fill="#233154"/>
<path d="M139.206 159.729C136.883 162.123 131.3 171.024 119.571 189.812C102.122 217.765 102.316 226.086 102.316 226.086C113.153 235.07 129.481 243.636 150.045 243.62L150.004 169.134C142.636 163.169 139.206 159.729 139.206 159.729Z" fill="#233154"/>
<path d="M160.852 159.729C163.174 162.123 168.758 171.027 180.486 189.812C197.936 217.765 197.741 226.086 197.741 226.086C186.905 235.07 170.577 243.636 150.012 243.62L150.054 169.134C157.421 163.169 160.852 159.729 160.852 159.729Z" fill="#445D9A"/>
<path d="M150.107 161.387C150.052 122.795 150.031 87.3237 149.994 87.3237C142.526 87.3703 133.822 88.2278 128.641 91.3251C126.265 92.7452 109.103 76.4152 108.304 76.4669C106.327 76.5791 106.082 82.62 107.467 85.3083C109.034 88.3486 107.374 88.4729 108.33 91.5943C109.969 96.9433 114.976 102.351 116.029 103.826C119.283 108.387 116.51 107.873 115.844 120.113C115.565 125.231 114.864 134.286 118.728 143.378C121.54 149.992 129.7 155.501 130.13 155.727C136.635 159.178 136.635 159.178 142.57 160.308L150.107 161.387Z" fill="#1E2D53"/>
<path d="M150.107 161.387C150.164 122.795 150.185 87.3237 150.223 87.3237C157.691 87.3703 166.394 88.2279 171.574 91.3251C173.952 92.7452 191.112 76.4152 191.913 76.4601C193.89 76.5722 194.135 82.6131 192.749 85.3015C191.183 88.3418 192.843 88.466 191.887 91.5874C190.247 96.9364 185.242 102.344 184.188 103.819C180.935 108.388 183.706 107.871 184.374 120.106C184.653 125.224 185.354 134.279 181.489 143.371C178.678 149.985 170.518 155.494 170.089 155.72C163.583 159.171 163.583 159.171 157.648 160.302L150.107 161.387Z" fill="#445D9A"/>
<path d="M150.04 147.674C150.04 147.635 149.377 147.956 149.341 147.975C141.894 152.004 139.182 158.229 139.206 159.729C139.23 161.271 144.594 166.002 149.999 169.134C150.003 169.137 150.008 169.138 150.013 169.138C150.017 169.138 150.022 169.137 150.026 169.134C150.031 169.132 150.034 169.128 150.036 169.124C150.039 169.12 150.04 169.115 150.04 169.11V147.674Z" fill="#445D9A"/>
<path d="M149.957 147.674C149.957 147.635 150.62 147.956 150.647 147.975C158.096 152.004 160.809 158.229 160.785 159.729C160.759 161.271 155.394 166.002 149.992 169.134C149.987 169.137 149.983 169.138 149.978 169.138C149.973 169.138 149.968 169.137 149.964 169.134C149.96 169.132 149.956 169.128 149.954 169.124C149.951 169.12 149.95 169.115 149.95 169.11L149.957 147.674Z" fill="#233154"/>
<defs>
<filter id="filter0_d_816_1612" x="55.3867" y="48.6863" width="189.129" height="206.195" filterUnits="userSpaceOnUse" color-interpolation-filters="sRGB">
<feFlood flood-opacity="0" result="BackgroundImageFix"/>
<feColorMatrix in="SourceAlpha" type="matrix" values="0 0 0 0 0 0 0 0 0 0 0 0 0 0 0 0 0 0 127 0" result="hardAlpha"/>
<feOffset dy="3.6"/>
<feComposite in2="hardAlpha" operator="out"/>
<feColorMatrix type="matrix" values="0 0 0 0 0.504808 0 0 0 0 0.345875 0 0 0 0 0.0873706 0 0 0 1 0"/>
<feBlend mode="normal" in2="BackgroundImageFix" result="effect1_dropShadow_816_1612"/>
<feBlend mode="normal" in="SourceGraphic" in2="effect1_dropShadow_816_1612" result="shape"/>
</filter>
</defs>
</svg>
