<svg width="2048" height="2048" viewBox="0 0 2048 2048" fill="none" xmlns="http://www.w3.org/2000/svg">
<g clip-path="url(#clip0_1034_1508)">
<path d="M491.021 595.801C484.509 539.57 533.926 494.379 590.517 495.714C769.766 499.943 914.927 454.442 982.565 428.432C1008.89 418.309 1038.57 418.402 1064.83 428.679C1132.42 455.126 1277.65 501.506 1457 497.546C1513.59 496.296 1563 541.484 1556.49 597.711C1506.38 1030.05 1304.91 1442.34 1066.4 1608.22C1040.67 1626.12 1006.84 1626.12 981.114 1608.21C742.599 1442.16 541.121 1028.39 491.021 595.801Z" fill="#4C3924"/>
<path d="M959.374 1012.2C945.914 1026.09 913.554 1077.68 845.584 1186.55C744.454 1348.55 756.194 1371.55 756.194 1371.55C818.484 1455.68 903.194 1572.98 1023.75 1635.67V1066.67C981.084 1032.14 959.374 1012.2 959.374 1012.2Z" fill="#E3B600"/>
<path d="M1087.54 1011.49C1101 1025.38 1133.36 1076.97 1201.33 1185.84C1302.47 1347.84 1290.73 1370.84 1290.73 1370.84C1228.44 1454.97 1144.3 1572.27 1023.73 1634.96V1066C1066.42 1031.44 1087.54 1011.49 1087.54 1011.49Z" fill="#F1D96C"/>
<path d="M491.037 595.781C484.561 539.554 533.97 494.377 590.553 495.707C769.268 499.908 913.41 454.549 980.698 428.531C1007 418.36 1036.67 418.348 1062.96 428.573C1130.9 455.006 1277.15 501.525 1457.04 497.544C1513.63 496.292 1563.04 541.484 1556.5 597.707C1506.17 1030.04 1303.18 1442.35 1064.51 1608.23C1038.76 1626.12 1004.94 1626.12 979.216 1608.2C740.867 1442.15 540.861 1028.37 491.037 595.781Z" stroke="#F7A727" stroke-width="50"/>
<path d="M961.084 1011.49C732.664 942.49 652.354 569.59 596.084 597.02C316.084 733.57 294.214 1249.67 359.894 1296.33C389.384 1317.33 396.514 1216.33 396.514 1216.33C398.964 1320.48 405.514 1376.64 450.514 1392.2C464.754 1396.13 479.284 1321.37 479.284 1321.37C486.344 1420.78 507.884 1438.77 544.844 1450.49C568.144 1457.88 564.754 1377.43 564.754 1377.43C574.524 1406.2 600.294 1468.37 649.564 1479.3C671.074 1484.07 667.474 1408.3 667.474 1408.3C669.204 1454.97 718.884 1490.68 734.384 1484.99C756.384 1476.91 749.124 1460.65 753.714 1406.99C765.444 1269.59 969.364 1014 961.084 1011.49Z" fill="#F1D96C"/>
<path d="M1086.42 1011.49C1314.84 942.49 1395.15 569.59 1451.42 597.02C1731.42 733.57 1753.29 1249.67 1687.61 1296.33C1658.12 1317.33 1650.99 1216.33 1650.99 1216.33C1648.54 1320.48 1641.99 1376.64 1596.99 1392.2C1582.75 1396.13 1568.22 1321.37 1568.22 1321.37C1561.16 1420.78 1539.62 1438.77 1502.66 1450.49C1479.36 1457.88 1482.75 1377.43 1482.75 1377.43C1472.98 1406.2 1447.21 1468.37 1397.94 1479.3C1376.43 1484.07 1380.03 1408.3 1380.03 1408.3C1378.3 1454.97 1328.62 1490.68 1313.12 1484.99C1291.12 1476.91 1298.38 1460.65 1293.79 1406.99C1282.06 1269.59 1078.14 1014 1086.42 1011.49Z" fill="#E3B600"/>
<path d="M1024.26 1031.11C1023.94 807.45 1024.48 601.99 1024.25 602C980.984 602.26 929.884 607.11 899.854 625.06C886.084 633.3 786.624 538.66 781.994 538.92C770.534 539.56 769.104 574.57 777.134 590.15C786.224 607.77 776.604 608.49 782.134 626.58C791.634 657.58 820.654 688.93 826.754 697.48C845.614 723.9 829.544 720.92 825.674 791.86C824.064 821.52 820.004 874.01 842.394 926.69C858.684 965 905.984 997 908.474 998.27C946.174 1018.27 946.174 1018.27 980.574 1024.82L1024.26 1031.11Z" fill="#E3B600"/>
<path d="M1023.5 1029.5C1023.83 805.84 1024.03 601.99 1024.25 602C1067.53 602.26 1118.65 607.11 1148.67 625.06C1162.45 633.3 1261.9 538.66 1266.54 538.92C1278 539.56 1279.42 574.57 1271.39 590.15C1262.31 607.77 1271.93 608.49 1266.39 626.58C1256.89 657.58 1227.87 688.93 1221.77 697.48C1202.92 723.9 1218.98 720.92 1222.85 791.86C1224.47 821.52 1228.52 874.01 1206.13 926.69C1189.84 965.02 1142.54 996.95 1140.06 998.27C1102.36 1018.27 1102.36 1018.27 1067.96 1024.82L1023.5 1029.5Z" fill="#F1D96C"/>
<path d="M1023.86 941.64C1023.86 941.41 1020.03 943.26 1019.86 943.37C976.704 966.73 960.984 1002.8 961.124 1011.49C961.264 1020.43 992.281 1048.86 1023.6 1067.01C1023.62 1067.02 1023.65 1067.02 1023.68 1067.02C1023.7 1067.02 1023.73 1067.01 1023.75 1067C1023.78 1066.99 1023.8 1066.97 1023.81 1066.94C1023.82 1066.92 1023.83 1066.89 1023.83 1066.87L1023.86 941.64Z" fill="#F1D96C"/>
<path d="M1023.39 941.64C1023.39 941.41 1027.23 943.26 1027.39 943.37C1070.56 966.73 1086.28 1002.8 1086.14 1011.49C1085.99 1020.43 1055.22 1048.85 1023.91 1067C1023.89 1067.01 1023.86 1067.02 1023.83 1067.02C1023.81 1067.02 1023.78 1067.01 1023.75 1067C1023.73 1066.99 1023.71 1066.97 1023.7 1066.94C1023.68 1066.92 1023.67 1066.89 1023.67 1066.86L1023.39 941.64Z" fill="#E3B600"/>
</g>
<defs>
<clipPath id="clip0_1034_1508">
<rect width="2048" height="2048" fill="white"/>
</clipPath>
</defs>
</svg>
