<svg width="2048" height="2048" viewBox="0 0 2048 2048" fill="none" xmlns="http://www.w3.org/2000/svg">
<g clip-path="url(#clip0_930_1488)">
<path d="M481.94 488C785.26 529.85 1024 412 1024 412C1024 412 1262.74 531.74 1566.06 489.92C1538.66 986 1301.1 1480.62 1024 1636C746.9 1480.62 509.34 984.09 481.94 488Z" fill="#4C3924"/>
<path d="M959.62 1013.2C946.16 1027.09 913.8 1078.68 845.83 1187.55C744.7 1349.55 756.44 1372.55 756.44 1372.55C818.73 1456.68 903.44 1573.98 1024 1636.67V1067.67C981.33 1033.14 959.62 1013.2 959.62 1013.2Z" fill="#D1AA0B"/>
<path d="M1087.79 1012.49C1101.25 1026.38 1133.61 1077.97 1201.58 1186.84C1302.72 1348.84 1290.98 1371.84 1290.98 1371.84C1228.69 1455.97 1144.55 1573.27 1023.98 1635.96V1067C1066.67 1032.44 1087.79 1012.49 1087.79 1012.49Z" fill="#F4E084"/>
<path d="M482 488C785.31 529.82 1022.1 412 1022.1 412C1022.1 412 1262.79 531.74 1566.1 489.92C1538.71 985.98 1299.19 1480.62 1022.1 1636C745 1480.62 509.34 984.09 482 488Z" stroke="#F7A727" stroke-width="50"/>
<path d="M961.33 1012.49C732.91 943.49 652.6 570.59 596.33 598.02C316.33 734.57 294.46 1250.67 360.14 1297.33C389.63 1318.33 396.76 1217.33 396.76 1217.33C399.21 1321.48 405.76 1377.64 450.76 1393.2C465 1397.13 479.53 1322.37 479.53 1322.37C486.59 1421.78 508.13 1439.77 545.09 1451.49C568.39 1458.88 565 1378.43 565 1378.43C574.77 1407.2 600.54 1469.37 649.81 1480.3C671.32 1485.07 667.72 1409.3 667.72 1409.3C669.45 1455.97 719.13 1491.68 734.63 1485.99C756.63 1477.91 749.37 1461.65 753.96 1407.99C765.69 1270.59 969.61 1015 961.33 1012.49Z" fill="#F4E084"/>
<path d="M1086.67 1012.49C1315.09 943.49 1395.4 570.59 1451.67 598.02C1731.67 734.57 1753.54 1250.67 1687.86 1297.33C1658.37 1318.33 1651.24 1217.33 1651.24 1217.33C1648.79 1321.48 1642.24 1377.64 1597.24 1393.2C1583 1397.13 1568.47 1322.37 1568.47 1322.37C1561.41 1421.78 1539.87 1439.77 1502.91 1451.49C1479.61 1458.88 1483 1378.43 1483 1378.43C1473.23 1407.2 1447.46 1469.37 1398.19 1480.3C1376.68 1485.07 1380.28 1409.3 1380.28 1409.3C1378.55 1455.97 1328.87 1491.68 1313.37 1485.99C1291.37 1477.91 1298.63 1461.65 1294.04 1407.99C1282.31 1270.59 1078.39 1015 1086.67 1012.49Z" fill="#D1AA0B"/>
<path d="M1024.51 1022.11C1024.19 798.45 1024.07 592.87 1023.84 592.88C980.57 593.14 930.13 598.11 900.1 616.06C886.33 624.3 786.87 529.66 782.24 529.92C770.78 530.56 769.35 565.57 777.38 581.15C786.47 598.77 776.85 599.49 782.38 617.58C791.88 648.58 820.9 679.93 827 688.48C845.86 714.9 829.79 711.92 825.92 782.86C824.31 812.52 820.25 865.01 842.64 917.69C858.93 956 906.23 988 908.72 989.27C946.42 1009.27 946.42 1009.27 980.82 1015.82L1024.51 1022.11Z" fill="#D1AA0B"/>
<path d="M1024.51 1022.11C1024.84 798.45 1024.96 592.87 1025.18 592.88C1068.46 593.14 1118.9 598.11 1148.92 616.06C1162.7 624.3 1262.15 529.66 1266.79 529.92C1278.25 530.56 1279.67 565.57 1271.64 581.15C1262.56 598.77 1272.18 599.49 1266.64 617.58C1257.14 648.58 1228.12 679.93 1222.02 688.48C1203.17 714.9 1219.23 711.92 1223.1 782.86C1224.72 812.52 1228.77 865.01 1206.38 917.69C1190.09 956.02 1142.79 987.95 1140.31 989.27C1102.61 1009.27 1102.61 1009.27 1068.21 1015.82L1024.51 1022.11Z" fill="#F4E084"/>
<path d="M1024.11 942.64C1024.11 942.41 1020.28 944.26 1020.11 944.37C976.95 967.73 961.23 1003.8 961.37 1012.49C961.51 1021.43 992.6 1048.86 1023.92 1067.01C1023.94 1067.02 1023.97 1067.03 1024 1067.03C1024.02 1067.02 1024.05 1067.02 1024.07 1067C1024.1 1066.99 1024.12 1066.97 1024.13 1066.95C1024.14 1066.92 1024.15 1066.9 1024.15 1066.87L1024.11 942.64Z" fill="#F4E084"/>
<path d="M1023.64 942.64C1023.64 942.41 1027.48 944.26 1027.64 944.37C1070.81 967.73 1086.53 1003.8 1086.39 1012.49C1086.24 1021.43 1055.15 1048.86 1023.84 1067.01C1023.82 1067.02 1023.79 1067.03 1023.76 1067.03C1023.73 1067.03 1023.7 1067.02 1023.68 1067.01C1023.66 1067 1023.64 1066.98 1023.62 1066.95C1023.61 1066.93 1023.6 1066.9 1023.6 1066.87L1023.64 942.64Z" fill="#D1AA0B"/>
</g>
<defs>
<clipPath id="clip0_930_1488">
<rect width="2048" height="2048" fill="white"/>
</clipPath>
</defs>
</svg>